<svg xmlns="http://www.w3.org/2000/svg" viewBox="0 -0.5 16 16" shape-rendering="crispEdges">
<metadata>Made with Pixels to Svg https://codepen.io/shshaw/pen/XbxvNj</metadata>
<path stroke="#f5f5f5" d="M0 0h2M3 0h10M14 0h2M0 1h1M4 1h8M15 1h1M0 2h1M5 2h6M15 2h1M6 3h4" />
<path stroke="#212121" d="M2 0h1M13 0h1M1 1h3M12 1h3M1 2h1M4 2h1M11 2h1M14 2h1M0 3h1M5 3h1M10 3h1M15 3h1M0 4h1M6 4h4M15 4h1M0 5h1M15 5h1M0 6h1M15 6h1M0 7h1M15 7h1M0 8h1M4 8h1M11 8h1M15 8h1M0 9h1M4 9h1M11 9h1M15 9h1M0 10h1M15 10h1M0 11h1M15 11h1M5 15h6" />
<path stroke="#9e9e9e" d="M2 2h2M12 2h2M2 3h1M4 3h1M11 3h1M13 3h1M1 12h2M12 12h2M1 13h2M12 13h2M3 14h1M14 14h1M1 15h1M3 15h1M12 15h1M14 15h1" />
<path stroke="#757575" d="M1 3h1M14 3h1M1 4h1M14 4h1" />
<path stroke="#e0e0e0" d="M3 3h1M12 3h1M2 4h3M11 4h3M2 5h12M1 6h14M1 7h2M7 7h2M13 7h2M1 8h2M7 8h2M13 8h2M1 9h2M7 9h2M13 9h2M1 10h2M7 10h2M13 10h2M4 11h8M5 12h6M3 13h1M5 13h6M14 13h1M1 14h2M5 14h6M12 14h2M2 15h1M13 15h1" />
<path stroke="#424242" d="M5 4h1M10 4h1M1 11h3M12 11h3M0 12h1M3 12h2M11 12h1M14 12h2M0 13h1M4 13h1M11 13h1M15 13h1M0 14h1M4 14h1M11 14h1M15 14h1M0 15h1M4 15h1M11 15h1M15 15h1" />
<path stroke="#bdbdbd" d="M1 5h1M14 5h1M6 8h1M6 9h1M10 10h2" />
<path stroke="#616161" d="M3 7h4M9 7h4M3 8h1M9 8h1M12 8h1M3 9h1M9 9h1M12 9h1M3 10h4M9 10h1M12 10h1" />
<path stroke="#000000" d="M5 8h1M10 8h1M5 9h1M10 9h1" />
</svg>